<?xml version="1.0" encoding="UTF-8"?>
<svg width="200px" height="200px" viewBox="0 0 200 200" version="1.1" xmlns="http://www.w3.org/2000/svg" xmlns:xlink="http://www.w3.org/1999/xlink">
    <!-- Generator: Sketch 54.1 (76490) - https://sketchapp.com -->
    <title>moravian</title>
    <desc>Created with Sketch.</desc>
    <g id="moravian" stroke="none" stroke-width="1" fill="none" fill-rule="evenodd">
        <g id="moravian_BGL">
            <g id="moravian" transform="translate(-1.000000, 48.000000)">
                <g id="g10" transform="translate(100.242814, 51.991224) scale(-1, 1) rotate(-180.000000) translate(-100.242814, -51.991224) translate(0.000000, 0.051942)" fill-rule="nonzero">
                    <g id="g12">
                        <polyline id="path14" fill="#A5A6A9" points="124.237723 0 124.237723 32.7975788 135.461802 32.7975788 135.461802 49.0745187 101.174085 7.16519011 67.4135519 50.0329023 67.4135519 32.9595255 78.4693474 32.9595255 78.4693474 0.506001831 20.0469007 0.506001831 20.0469007 33.1279126 32.6121556 33.1279126 32.6121556 69.852205 20.2141452 69.852205 20.2141452 102.979806 70.3562238 102.979806 101.229244 61.7639084 133.786241 103.147362 183.497327 103.147362 183.497327 69.6830907 171.434948 69.6830907 171.434948 32.9595255 183.162838 32.9595255 183.162838 0 124.237723 0"></polyline>
                        <polyline id="path16" fill="#FFFFFF" points="128.581925 4.3430173 128.581925 28.4501571 139.802887 28.4501571 139.802887 61.2400489 101.238178 14.0994374 63.0717396 62.5616958 63.0717396 28.6189597 74.1275351 28.6189597 74.1275351 4.84576878 24.3912061 4.84576878 24.3912061 28.7852693 36.9543834 28.7852693 36.9543834 74.1924592 24.556373 74.1924592 24.556373 98.6375782 68.183292 98.6375782 101.144895 54.6332683 135.893937 98.8055498 179.154164 98.8055498 179.154164 74.030928 167.094902 74.030928 167.094902 28.6189597 178.818637 28.6189597 178.818637 4.3430173 128.581925 4.3430173"></polyline>
                        <polyline id="path18" fill="#1F3361" points="26.7272272 96.4670356 67.0978649 96.4670356 101.102201 51.0688832 136.947265 96.6351111 176.984141 96.6351111 176.984141 76.2010551 164.922801 76.2010551 164.922801 26.4484171 176.646536 26.4484171 176.646536 6.51350795 130.751948 6.51350795 130.751948 26.279199 141.973949 26.279199 141.973949 67.3218271 101.270692 17.5680465 60.901197 68.8264042 60.901197 26.4484171 71.9569925 26.4484171 71.9569925 7.01708006 26.5624758 7.01708006 26.5624758 26.6148306 39.1253415 26.6148306 39.1253415 76.3628979 26.7272272 76.3628979 26.7272272 96.4670356"></polyline>
                        <path d="M187.030237,25.8093562 C182.741091,25.8093562 175.322084,31.4760357 171.856695,34.3326962 C171.333147,34.3874402 170.249694,34.4694004 168.217829,34.4694004 C167.604946,34.4694004 166.922463,34.4645181 166.156878,34.4487286 C164.173837,34.4081121 161.276664,34.1115388 158.206013,33.8071746 C153.928294,33.3737932 149.131182,32.8877454 145.116275,32.8877454 C140.987103,32.8877454 138.303919,33.3778445 136.423717,34.4746982 C134.450025,35.6173624 133.084021,36.9637325 132.344406,38.4837875 C132.115873,38.4419244 131.884224,38.4005808 131.647381,38.3607953 C131.260953,38.2894307 130.825701,38.2581632 130.326046,38.2581632 C125.43752,38.2581632 112.288572,41.2779131 103.595702,45.8319493 C99.2591875,48.1019037 95.3702857,49.2535014 92.0380692,49.2535014 C90.2915589,49.2535014 88.735458,48.9316856 87.4142266,48.2990652 C86.0836461,47.6623935 84.3964504,46.4179283 82.7603631,45.2200007 C80.2234408,43.3575619 77.6030002,41.4309262 75.0047895,40.6712623 C72.8346625,40.0390573 70.391127,39.8695275 68.593924,39.8495828 C68.3033756,39.1253415 67.913,38.4472222 67.4363013,37.8356891 C65.7408992,35.6684707 63.0834778,34.3821424 59.5374792,34.019814 C56.6251398,33.7239678 54.2611753,33.5723051 52.5085362,33.5723051 C50.7572475,33.5723051 49.9847026,33.7239678 49.5638906,33.8530889 C44.6835718,35.126744 38.7426529,36.4890074 36.8395976,36.6727686 C36.3153225,36.3209319 35.3706508,35.5719675 34.9283359,35.2188842 C32.3732349,33.1839032 29.4759579,30.8734362 26.2171835,30.7354854 C25.9822101,30.7269674 25.7456787,30.7208386 25.5090433,30.7208386 C21.5385968,30.7208386 17.8747999,32.0875688 17.7210596,32.1431439 L17.4154489,32.2611499 L17.1245889,32.4384706 C15.2985077,33.5617095 14.197291,35.0395898 13.9574354,36.5660853 C12.7364468,36.4541042 11.5556591,36.3770263 10.493397,36.3770263 C9.46269307,36.3770263 8.60569493,36.4475599 7.87123193,36.5961062 C4.61448315,37.2441007 0.820883726,39.8804348 0.116457219,43.1602965 C-0.303925823,45.122251 0.428499074,46.9986094 2.08082267,48.1764885 C3.2555334,49.0189436 4.65830952,49.4417294 6.24407812,49.4417294 C7.74138373,49.4417294 9.16322156,49.0542623 10.2040432,48.7737902 C10.5359872,48.682481 11.0760518,48.5348695 11.2546191,48.5140938 C11.5507769,48.4889552 11.8393515,48.4529093 12.1346783,48.4216419 C12.922701,48.3363576 13.6523441,48.2532547 14.8931735,48.2532547 C15.7546384,48.2532547 16.7617411,48.2897161 17.9762893,48.3712608 C20.5342989,48.5441147 23.3852461,49.1613611 25.4653104,49.6101165 C27.2161836,49.9932207 28.0204114,50.1616078 28.7463148,50.1616078 C29.493825,50.1616078 31.4139163,49.8957826 34.4589087,49.371092 C36.7989811,51.477957 38.7763095,52.6713139 40.3487193,52.9358926 C40.6627442,52.9861698 40.9817553,53.0129705 41.3023245,53.0129705 C42.7123722,53.0129705 44.1816306,52.5264033 45.4760613,52.1040331 C45.8336114,51.9871697 46.341162,51.8196136 46.7445225,51.7063859 C47.0914769,52.0744277 47.5350384,52.5881072 47.8141601,52.9143898 C48.9114293,54.1909534 50.2682911,55.7604546 52.0825302,57.2447754 C52.2805228,57.4071376 52.4858907,57.5755248 52.7009193,57.7451585 C50.938204,57.4797487 49.2988964,57.152739 47.6900252,56.8313387 C44.9238429,56.281094 42.3171142,55.7645059 39.2441786,55.537739 C37.7789714,55.4305363 36.385856,55.2869761 35.0553794,55.1538038 C32.6795728,54.9091698 30.4660245,54.6856231 28.3182313,54.6856231 C26.2325575,54.6856231 24.4199804,54.904703 22.775375,55.3575097 C19.0374088,56.3890238 13.3914011,57.943151 13.3914011,63.0185537 C13.3914011,65.9345289 15.5070958,68.0566641 18.4250447,68.0566641 C19.1822155,68.0566641 19.7767125,67.9187133 19.99787,67.857425 L21.0407069,67.581939 L21.6733273,66.8373375 C21.9289725,66.6137908 23.6169991,65.2872616 27.6300358,65.2872616 C27.895861,65.2872616 28.1657375,65.2933904 28.4480795,65.3019084 C32.7042959,65.4856696 37.8089923,66.307349 43.7194748,67.2609543 C47.0886722,67.8059012 50.9077675,68.4242903 54.9984015,68.9842996 C61.8637357,69.9330225 71.3978142,70.0450036 74.1352221,70.0551837 C76.5216243,70.9429299 84.6407728,73.7773604 91.0301355,73.9157267 C91.3818683,73.9258029 91.7750487,73.9258029 92.2035477,73.9258029 C95.4107984,73.9258029 100.614907,73.722097 106.12234,73.5034326 C111.971742,73.2733416 117.959303,73.033486 121.798654,73.033486 C123.834674,73.033486 124.632462,73.1009032 124.927477,73.1406887 C128.710734,73.6661065 143.607959,74.8900037 151.820598,74.8900037 C153.097265,74.8900037 154.17968,74.8595673 155.042911,74.7978634 C159.858721,74.4626473 163.121547,73.7164876 165.502444,73.1760074 C166.398916,72.9723016 167.171772,72.7945653 167.842828,72.6825842 C174.850475,71.5139504 176.191548,70.6723263 176.836634,70.2702124 C178.159008,69.4444817 178.85811,68.2190263 179.32037,67.4086696 C179.392046,67.2816261 179.498002,67.0982804 179.579028,66.9659391 C181.726198,65.6589391 187.43848,60.8298324 188.140699,60.1306258 C189.167019,59.1011892 190.667025,56.7298494 190.576651,54.4047355 C190.523673,53.058781 189.959612,51.8592952 188.98627,51.0226572 C187.818675,50.0243842 186.209596,49.8251452 183.986595,49.8251452 C180.760127,49.8251452 176.30062,50.2999741 175.804081,50.3547181 L167.898922,51.6134146 L158.135376,55.0511718 C155.560226,54.2367639 153.380854,53.3173347 152.191444,52.6947905 C152.938331,51.7465869 154.288753,50.6769494 154.988894,50.4817616 C156.33516,50.1056173 161.013851,49.4059952 165.139907,48.7896836 C168.479603,48.2897161 171.636473,47.8149911 173.704695,47.4274202 C176.719251,46.8666837 180.072451,45.281289 183.030912,43.8789284 C184.57247,43.1498048 186.885846,42.0570023 187.553785,41.9758732 C187.983842,41.9251804 188.744233,41.9052357 189.481771,41.8837329 C193.741831,41.7567933 197.145931,41.4763211 198.988737,39.1609718 C199.886248,38.0349282 200.220737,36.6155315 199.929877,35.1624782 C199.167408,31.3530435 196.299321,29.0734284 192.251174,29.0734284 C192.046533,29.0734284 191.841892,29.0843357 191.641406,29.0928537 C191.301723,28.0229045 190.590155,27.1199921 189.583572,26.4992138 C188.84084,26.0451606 187.983842,25.8093562 187.032315,25.8093562 L187.030237,25.8093562" id="path20" fill="#FFFFFF"></path>
                        <path d="M19.095373,64.5013163 C19.095373,64.5013163 21.6169213,61.5342329 28.5998461,61.8296636 C35.5763304,62.1255097 44.2888332,64.0013488 55.4687636,65.5429067 C63.2162346,66.6080775 74.7727248,66.5763945 74.7727248,66.5763945 C74.7727248,66.5763945 84.2735621,70.2904687 91.1043048,70.4385995 C97.9351514,70.5920282 121.095396,69.101163 125.402202,69.6980492 C129.710046,70.2904687 148.41442,71.7736468 154.799835,71.3305009 C161.18525,70.8873549 164.596622,69.6980492 167.271495,69.2497094 C169.944291,68.8057324 173.804418,68.0611308 174.992789,67.3209961 C176.179082,66.5763945 176.476175,64.6497588 177.665584,64.0524571 C178.852916,63.4612842 184.939161,58.4118511 185.680854,57.674521 C186.426703,56.9290885 187.762581,54.5516198 186.720679,53.6594068 C185.680854,52.7723878 176.179082,53.8119005 176.179082,53.8119005 L168.754881,55.0004791 L158.214323,58.7075934 C158.214323,58.7075934 150.047391,56.3362535 148.562966,54.2567085 C147.078542,52.1762287 151.383269,47.8726437 154.058142,47.1320934 C156.730938,46.3879074 168.312359,44.9035866 173.062725,44.0100232 C177.813092,43.1189529 184.496639,38.8140174 187.168395,38.5195217 C189.837036,38.2232601 197.11269,38.8140174 196.521621,35.8449603 C195.927436,32.8783963 193.550694,32.4296409 191.620631,32.5772524 C189.690567,32.7257987 186.572133,33.9142734 186.572133,33.9142734 C186.572133,33.9142734 189.690567,30.650305 187.758426,29.4608955 C185.829401,28.2724208 178.256654,33.4691537 173.506287,37.478243 C173.506287,37.478243 173.210233,38.0742982 166.083125,37.9209734 C158.957055,37.7740891 142.772775,34.8054476 138.169916,37.478243 C133.567057,40.1498958 135.647744,42.6746642 135.647744,42.6746642 C135.647744,42.6746642 133.567057,42.2315183 131.042808,41.7827629 C128.518559,41.339617 114.562474,44.0100232 105.210287,48.9121565 C95.8547754,53.8119005 89.619984,53.2158453 85.9075719,51.4360939 C82.197549,49.6560309 77.5915735,45.0520291 74.030097,44.0100232 C70.4677894,42.969991 65.7145141,43.413968 65.7145141,43.413968 C65.7145141,43.413968 66.4603622,38.2232601 59.1827339,37.478243 C51.9080142,36.7344725 50.5709932,37.1832279 50.5709932,37.1832279 C50.5709932,37.1832279 38.1006833,40.4460536 36.1692692,40.1498958 C34.2393094,39.8536341 29.6370735,34.3631326 26.0743504,34.2145863 C22.5099653,34.0657283 18.944853,35.396205 18.944853,35.396205 C18.944853,35.396205 17.0169707,36.5855106 17.4617787,37.478243 C17.9073139,38.3705599 19.095373,38.2232601 19.9864433,38.2232601 C20.8783447,38.2232601 25.3309954,37.9209734 27.854829,40.1498958 C27.854829,40.1498958 26.0743504,41.0429398 22.2146385,40.8944973 C18.3540956,40.747613 11.5228335,39.4113192 8.55090937,40.003427 C5.58428303,40.5945999 2.02116521,43.8639699 4.09954673,45.3470442 C6.17834376,46.831365 9.29632117,45.1980823 10.927921,45.0520291 C12.5631773,44.9035866 13.7481201,44.6073249 18.2055493,44.9035866 C22.6576806,45.1980823 27.7072176,46.6828186 28.7467304,46.6828186 C29.7847888,46.6828186 35.5763304,45.6433058 35.5763304,45.6433058 C35.5763304,45.6433058 39.1403,49.2071716 40.9208825,49.5030177 C42.7042696,49.7991755 46.2640841,47.7236818 47.7520407,48.1672433 C49.2352188,48.6159987 51.0173594,51.8809019 54.2834053,54.5516198 C57.5503862,57.2257656 63.489643,61.3809082 63.489643,61.3809082 C63.489643,61.3809082 63.9348665,62.1255097 56.8077583,61.6807017 C49.6820005,61.2319463 45.076025,59.453857 38.9925847,59.00988 C32.9031194,58.5602936 28.0046219,57.5255592 23.6985438,58.7075934 C19.3936084,59.8961719 16.8700864,60.9361002 16.8700864,63.0189692 C16.8700864,65.0945668 19.095373,64.5013163 19.095373,64.5013163" id="path22" fill="#909295"></path>
                        <path d="M187.032315,28.1300033 C183.014292,28.1300033 173.966469,35.5804855 172.859123,36.5084327 C172.588,36.5806283 171.518051,36.7892165 168.217829,36.7892165 C167.590403,36.7892165 166.8913,36.7798674 166.107017,36.7640779 C164.023213,36.7234614 161.064751,36.4236678 157.933851,36.1059033 C153.753778,35.6879998 149.018993,35.2083925 145.116275,35.2083925 C141.470138,35.2083925 139.076776,35.6112336 137.588196,36.4788273 C135.533478,37.6713532 134.352379,39.044524 134.078139,40.5633324 C134.040743,40.7719206 134.024122,40.9715752 134.01789,41.1594915 C133.241917,41.0077249 132.276885,40.8238599 131.244332,40.6400987 C130.995024,40.5982356 130.694814,40.5788104 130.326046,40.5788104 C126.19895,40.5788104 113.32528,43.3535107 104.672196,47.8815772 C99.9981796,50.3348773 95.7472611,51.5740447 92.0368227,51.5740447 C89.9385795,51.5740447 88.0472625,51.1763975 86.4099286,50.3904523 C84.8883154,49.6608093 83.1073175,48.35142 81.3864652,47.0857636 C79.015437,45.3413308 76.5601633,43.5413231 74.3534709,42.8997691 C72.2711213,42.2932222 69.8380775,42.1641011 68.1634512,42.1641011 C67.6626527,42.1641011 67.2138973,42.1755278 66.8373375,42.1900708 C66.7192276,41.3651711 66.4092539,40.2878465 65.6082463,39.2628767 C64.3178668,37.6097533 62.1936541,36.6212448 59.2992857,36.3250871 C56.470153,36.0349542 54.1844091,35.8921212 52.5089517,35.8921212 C51.0047901,35.8921212 50.4208887,36.0089846 50.2070028,36.0820112 C47.1438317,36.8809413 38.5572296,39.0132565 36.4784118,39.0132565 C36.4277191,39.0132565 36.3818048,39.0132565 36.3457589,39.0031803 C35.871761,38.9321274 34.4893451,37.8356891 33.4850471,37.0303186 C31.204601,35.214002 28.62218,33.1591801 26.1205764,33.0561326 C25.9160395,33.0476145 25.7123336,33.0410702 25.5090433,33.0410702 C21.9739519,33.0410702 18.6794433,34.265279 18.5399344,34.3168028 L18.4348092,34.3565883 L18.3382022,34.4138254 C16.9707448,35.2537874 15.7473669,36.6415012 16.4253823,37.9972203 C17.1197066,39.3906473 18.6872342,39.3906473 19.2763295,39.3906473 C19.2763295,39.3906473 20.709542,39.3650932 20.9741207,39.3650932 C22.2242992,39.3650932 23.3430714,39.4819566 24.3047791,39.7124631 C23.9278038,39.7388483 23.5175874,39.7530797 23.0687281,39.7530797 C22.8098627,39.7530797 22.5412327,39.7469508 22.2576443,39.7388483 C20.9027562,39.6811957 19.1591545,39.4779053 17.3087656,39.2628767 C14.9216362,38.9832356 12.4536893,38.6911291 10.4921504,38.6911291 C9.61769028,38.6911291 8.91124333,38.7487817 8.32733154,38.8648141 C5.89470334,39.3549131 2.85787587,41.4349775 2.38109404,43.6485258 C2.1571007,44.6945829 2.53934264,45.6582643 3.42677721,46.2908848 C4.20220991,46.8468429 5.15050693,47.1272111 6.24367299,47.1272111 C7.43015316,47.1272111 8.6336902,46.8009285 9.59699767,46.5355188 C10.1590015,46.3826096 10.6865072,46.239361 11.0354353,46.2036268 C11.3211013,46.1776572 11.5962757,46.1488828 11.8738392,46.1171998 C12.6797291,46.0299418 13.5119003,45.9338542 14.8931735,45.9338542 C15.8138492,45.9338542 16.8693593,45.9743668 18.1291985,46.0616248 C20.8621396,46.239361 23.8101094,46.8820577 25.9619538,47.346291 C27.5022652,47.6830653 28.2626562,47.8409607 28.7467304,47.8409607 C29.6909865,47.8409607 33.5406222,47.1827861 35.1920836,46.8934843 C36.3278918,47.9789115 38.982093,50.3547181 40.7309925,50.6509797 C40.9098713,50.6769494 41.1005924,50.6914924 41.3026362,50.6914924 C42.3434994,50.6914924 43.5668772,50.2893785 44.7554558,49.9019114 C45.7029321,49.5837314 46.6877009,49.2639932 47.259033,49.2639932 C47.3677939,49.2639932 47.4116306,49.2794711 47.4169284,49.2794711 C47.860386,49.4117085 48.771401,50.4666992 49.5743823,51.4007752 C50.607143,52.6038967 51.8897316,54.0923727 53.5502304,55.450481 C55.5336877,57.0710905 58.4425991,59.2022631 60.4719708,60.6601987 C59.4992519,60.656563 58.2901054,60.6107525 56.8803694,60.5246372 C53.1801111,60.2897678 50.1582837,59.6879992 47.2330634,59.1060715 C44.5456211,58.5717202 42.0086988,58.0657277 39.0734022,57.8518417 C37.5764082,57.7394451 36.1514021,57.5974431 34.7875804,57.4525326 C32.5030831,57.2257656 30.3451098,56.9997259 28.3186468,56.9997259 C26.446859,56.9997259 24.8359102,57.1940827 23.3897128,57.5904833 C19.1879288,58.7535077 15.7067504,59.9574602 15.7067504,63.0185537 C15.7067504,64.6697035 16.7747259,65.7400682 18.4254602,65.7400682 C18.9269859,65.7400682 19.3197507,65.6395138 19.3931929,65.6199846 L19.7458606,65.5271172 L19.9808339,65.2515273 C19.9909101,65.2406201 22.0924773,62.9666145 27.6300358,62.9666145 C27.9282712,62.9666145 28.2318043,62.9727433 28.5471796,62.9872863 C32.9339714,63.1699048 38.1051501,64.0066466 44.0871011,64.9719901 C47.4481959,65.5169371 51.2576305,66.1296128 55.3136729,66.6896222 C62.5020695,67.6796887 72.835078,67.7345366 74.5580078,67.7409771 C76.0289283,68.302233 84.6046231,71.458687 91.0812437,71.6011045 C91.4176025,71.6051558 91.7929158,71.6100381 92.2031322,71.6100381 C95.3654035,71.6100381 100.546347,71.4018654 106.031966,71.1876678 C111.868902,70.9526945 117.900092,70.7129428 121.798654,70.7129428 C123.460711,70.7129428 124.61688,70.7587532 125.245345,70.8460112 C128.976663,71.3601062 143.697294,72.5693566 151.820598,72.5693566 C153.043249,72.5693566 154.074763,72.5445296 154.878783,72.4881236 C159.520077,72.1623604 162.680063,71.443313 164.986167,70.9173758 C165.918997,70.7035937 166.725094,70.5197287 167.461593,70.3972558 C174.004904,69.3065309 175.210934,68.5513338 175.606711,68.3062842 C176.432546,67.7916698 176.896883,66.9752882 177.305126,66.2607076 C177.590792,65.7559616 177.888923,65.2406201 178.1829,65.0941513 C179.570717,64.4002425 185.775384,59.2135858 186.502534,58.4885135 C187.244227,57.7507679 188.315215,55.9641605 188.260159,54.4911625 C188.226918,53.6037279 187.815559,53.0746744 187.477954,52.7820485 C187.028159,52.4002947 186.262574,52.1397673 183.986595,52.1397673 C180.80895,52.1397673 176.246603,52.6343331 176.054428,52.6599912 L168.470254,53.8687221 L158.184199,57.4943956 C154.954614,56.5250009 150.337212,54.7468076 149.506184,53.5843026 C149.349327,53.3590939 149.435546,52.9756781 149.534231,52.6947905 C150.161657,50.9215834 152.787707,48.6866361 154.366662,48.2492035 C155.849009,47.8348319 160.397851,47.1519342 164.796069,46.4950062 C168.120183,46.0003365 171.260432,45.5316364 173.275676,45.1526874 C175.997295,44.6385924 179.210259,43.1230041 182.039911,41.7827629 C184.212012,40.7565466 186.265691,39.7842432 187.295127,39.670704 C187.815559,39.6158561 188.590493,39.5898864 189.412172,39.5630858 C193.063504,39.4580645 195.952367,39.2522811 197.177095,37.7180986 C197.646626,37.1259908 197.810754,36.3964516 197.655975,35.6173624 C197.11269,32.8937704 195.193014,31.3940755 192.251174,31.3940755 C192.008098,31.3940755 191.767099,31.4049828 191.530256,31.4196297 C190.858162,31.4760357 190.066607,31.6387096 189.3031,31.8323392 C189.493198,31.3068175 189.596037,30.7614551 189.527478,30.236349 C189.432948,29.4917474 189.031977,28.8810453 188.369232,28.4716599 C187.997346,28.2419844 187.547552,28.1300033 187.032315,28.1300033" id="path24" fill="#1F3361"></path>
                        <path d="M163.113237,66.4295102 C163.706383,67.025981 164.5987,68.3630019 164.5987,68.3630019 C164.5987,68.3630019 169.202598,67.4695424 171.428716,66.4295102 C173.656911,65.3939448 174.845281,63.9055728 172.91314,63.0177227 L176.029497,62.5697983 C176.029497,62.5697983 176.029497,61.8300791 176.624721,61.8300791 C177.222023,61.8300791 177.365375,62.4208365 177.365375,62.4208365 L178.852916,62.2731212 L178.406239,61.5338174 L178.852916,60.9361002 C178.852916,60.9361002 182.267405,58.8569707 183.603283,57.8209898 C184.939161,56.7802305 184.643108,55.4455987 183.901415,55.4455987 C183.157644,55.4455987 180.337341,56.928673 179.297517,57.8209898 L180.337341,55.7406138 C180.337341,55.7406138 180.635473,55.149337 179.595648,55.4455987 C178.554785,55.7406138 176.029497,57.3726499 176.029497,57.3726499 L171.873316,57.0763883 L171.726847,58.5611246 C171.726847,58.5611246 166.973364,57.3726499 166.231671,57.9695362 C165.489978,58.5611246 166.086241,60.198043 165.489978,60.3453428 C164.895793,60.4942008 163.560953,58.8569707 162.221958,59.0095683 C160.887119,59.1567643 159.103524,61.6815327 159.103524,61.6815327 C159.103524,61.6815327 157.174499,59.3057261 155.246513,59.1567643 C153.313333,59.0095683 148.562966,58.7080089 148.562966,58.7080089 C148.562966,58.7080089 147.525219,55.2970524 145.743702,54.7005817 C145.743702,54.7005817 150.049468,45.495175 152.128078,43.4143835 C152.128078,43.4143835 165.935617,43.1181218 173.210233,42.2323493 C180.484849,41.3387859 184.791654,38.2167157 186.572133,37.6251273 C188.354689,37.0343699 193.996333,37.3301122 194.440934,36.8874856 C194.887612,36.4386263 196.369959,34.9543055 193.996333,34.5096014 C191.620631,34.0653128 184.939161,35.8457914 184.939161,35.8457914 L184.939161,34.2150018 C184.939161,34.2150018 188.354689,30.7976048 186.276079,30.5009277 C184.197469,30.2006147 179.147932,34.6585633 179.147932,34.6585633 C179.147932,34.6585633 181.377166,36.4386263 183.304113,35.8457914 C183.304113,35.8457914 181.228619,37.7749202 177.665584,38.2236756 C174.100472,38.6659905 161.927982,38.814433 153.909596,38.5182752 C145.89121,38.2236756 146.039756,37.478243 144.258239,38.3701443 C142.476721,39.2584099 142.329214,40.7480285 144.258239,41.4877478 C144.258239,41.4877478 144.406785,42.6746642 143.070907,42.9695755 C141.735028,43.271966 140.39915,45.1989133 140.39915,46.0920612 C140.39915,46.0920612 137.431339,46.832196 136.390476,48.7632985 C136.390476,48.7632985 134.606881,48.019528 134.460412,46.6832341 C134.460412,46.6832341 133.715603,47.8718127 132.677856,48.7632985 C131.640109,49.6563425 127.480812,50.9881696 127.480812,50.9881696 C127.480812,50.9881696 126.443065,50.3957501 124.661548,50.8383767 C124.661548,50.8383767 123.32463,50.8383767 123.768192,49.9526042 C124.213831,49.0590408 128.370012,45.7962151 127.776866,45.051198 C127.185797,44.3074275 123.028577,44.9031711 121.394567,45.3474597 C119.759518,45.7897746 116.940254,46.832196 118.870318,49.9526042 C120.799343,53.0677145 121.690621,55.7406138 121.837089,56.928673 C121.837089,56.928673 119.165333,50.6919079 114.562474,49.9526042 C114.562474,49.9526042 118.422601,54.40432 117.680908,59.8965874 C117.680908,59.8965874 115.006035,52.4712438 111.889678,50.5434654 C111.889678,50.5434654 113.821819,53.512107 113.969327,57.0763883 C113.969327,57.0763883 110.108161,50.8383767 108.178097,51.1410788 C106.248033,51.4365094 110.705463,53.8123161 111.299648,57.8209898 C111.299648,57.8209898 109.067298,55.4455987 109.366468,58.1164204 C109.366468,58.1164204 106.544087,52.9199992 103.575446,52.7715567 C103.575446,52.7715567 102.832922,53.3635607 104.021916,54.5520353 C105.210287,55.7406138 107.731419,58.7080089 107.882043,60.9361002 C107.882043,60.9361002 104.468594,57.0763883 102.832922,56.6320997 C102.832922,56.6320997 105.210287,59.7497031 104.615062,62.1246787 C104.615062,62.1246787 103.575446,59.0095683 100.60722,57.9695362 C100.60722,57.9695362 101.202028,60.6407734 100.4567,62.1246787 C100.4567,62.1246787 99.7157338,58.5611246 98.8253906,57.9695362 C98.8253906,57.9695362 93.9264776,57.0763883 91.4022285,56.6320997 C88.8782911,56.1832404 84.5746022,56.3370845 84.5746022,56.3370845 C84.5746022,56.3370845 86.3526915,59.4542725 85.6121413,62.5697983 C85.6121413,62.5697983 81.603883,53.8123161 74.7727248,50.9881696 C67.9434364,48.1675549 62.002933,47.4278357 62.002933,47.4278357 C62.002933,47.4278357 61.4113446,41.9300627 56.067208,42.2323493 C50.7215133,42.5273644 49.0862569,43.1181218 49.0862569,43.1181218 C49.0862569,43.1181218 51.6118564,41.0426281 50.5709932,40.2991693 C49.5334542,39.5583073 45.3750914,40.445638 45.3750914,40.445638 C45.3750914,40.445638 37.6555637,42.2323493 31.7146448,42.3788181 C25.7761151,42.5273644 18.2055493,41.7830745 13.6004048,41.7830745 C9.00091131,41.7830745 4.54347177,42.2323493 4.98900693,43.8627234 C5.43576785,45.495175 7.36564458,44.4543118 8.40360957,44.3074275 C9.44443122,44.158985 14.4931372,43.5681238 18.2055493,43.8627234 C21.9183769,44.158985 26.6663544,44.9031711 29.6370735,44.7565984 C32.6072733,44.6081559 39.7314729,44.3074275 39.7314729,44.3074275 L37.3577439,45.6437213 C37.3577439,45.6437213 39.8829279,49.2071716 42.2562414,48.46257 C42.2562414,48.46257 38.6935183,45.7897746 41.8131993,45.1989133 C44.9283097,44.6081559 47.1576475,44.9031711 47.1576475,44.9031711 C47.1576475,44.9031711 60.9649784,58.5611246 64.676144,60.9361002 C64.676144,60.9361002 66.3085956,62.5697983 62.746288,62.8701113 C59.1827339,63.165438 44.7805944,61.2327774 40.6246208,60.6407734 C36.4682317,60.0450299 36.1692692,60.9361002 38.6935183,61.6815327 C41.2174558,62.4208365 49.5334542,64.3540165 57.2541245,64.6493433 C64.9756259,64.9451894 75.0709602,65.0937358 75.0709602,65.0937358 C75.0709602,65.0937358 83.6814543,68.2145595 93.1818761,68.3630019 C102.686037,68.5103017 112.633449,67.3205806 119.165333,67.4695424 C125.699294,67.6180888 142.179628,71.3296698 152.424132,70.438184 C152.424132,70.438184 153.017279,70.2892221 152.570601,69.5499184 C152.128078,68.8053169 149.009644,66.7257719 149.009644,66.7257719 C149.009644,66.7257719 151.237839,65.8387529 153.313333,65.8387529 C155.394021,65.8387529 156.431767,66.8783695 156.431767,66.8783695 L152.722264,67.3205806 C152.722264,67.3205806 154.799835,69.5499184 155.837582,69.2497094 C156.878445,68.9538632 158.513494,66.7257719 155.988206,65.0937358 C153.463957,63.4608687 151.237839,64.2054702 149.307775,63.609415 C147.374595,63.0177227 146.187263,61.8300791 146.037678,61.3813237 C145.89121,60.9361002 149.009644,62.5697983 151.532854,62.7170981 C154.058142,62.8701113 156.580314,63.3143999 156.580314,63.3143999 C156.580314,63.3143999 159.698748,66.7257719 157.322007,69.6984648 C154.947343,72.6675218 158.957055,69.1015785 158.957055,69.1015785 L159.103524,67.3205806 C159.103524,67.3205806 159.99688,68.3630019 161.332758,68.5103017 C161.947719,68.5764724 160.805055,66.425459 160.805055,66.425459 C160.805055,66.425459 162.794329,66.1138233 163.113237,66.4295102" id="path26" fill="#FFFFFF"></path>
                        <path d="M57.7037109,50.7625453 C57.7037109,50.7625453 55.7373936,49.5079 56.2762117,48.4374314 C56.8109785,47.3617689 58.0628191,45.036655 56.9899613,44.6795205 C55.9154414,44.3229054 53.7684793,47.5390896 54.485553,48.9734448 C55.2001337,50.4049953 57.7037109,50.7625453 57.7037109,50.7625453" id="path28" fill="#1F3361"></path>
                        <path d="M68.4376906,53.0892174 C68.4376906,53.0892174 68.9741195,56.1289119 68.2595389,56.668561 C67.542569,57.2038473 66.4692957,56.4900977 66.4692957,57.5600469 C66.4692957,58.6330085 67.9033393,60.9620698 69.6907777,60.7783086 C71.4806054,60.6005724 73.6247628,56.8467128 73.6247628,56.8467128 C73.4461956,55.0577162 72.9110132,52.3734941 68.4376906,53.0892174" id="path30" fill="#1F3361"></path>
                        <path d="M96.16558,62.0333694 C96.16558,62.0333694 92.0530277,62.3908156 90.2651738,61.4973561 C88.4753461,60.6009879 87.9376707,58.9936749 88.6530823,58.632593 C89.3680785,58.2737965 89.5486194,58.9936749 90.443741,59.1718267 C91.3364734,59.3512249 92.0530277,58.632593 92.9481493,59.1718267 C93.8404661,59.70784 93.8404661,61.3200353 95.2732632,61.3200353 C96.703671,61.3200353 96.8821344,61.4973561 96.16558,62.0333694" id="path32" fill="#1F3361"></path>
                        <path d="M123.359949,65.792423 C123.359949,65.792423 125.863423,61.1406371 124.790357,58.6330085 C123.717291,56.1284964 122.108212,53.4467674 123.359949,53.0892174 C124.611686,52.7317712 124.430937,55.5928985 125.327409,55.5928985 C126.220765,55.5928985 128.190302,53.4467674 128.724238,52.5527885 C129.262329,51.6556932 131.766841,50.5843936 131.766841,50.5843936 C131.766841,50.5843936 131.766841,52.7317712 129.979091,53.9802877 C129.979091,53.9802877 131.945512,55.5928985 130.157762,59.1722422 C128.368973,62.7467035 126.399436,64.5373622 123.359949,65.792423" id="path34" fill="#1F3361"></path>
                        <path d="M132.124184,56.6689765 C132.124184,56.6689765 133.914011,55.0577162 133.914011,53.9807032 C133.914011,53.9807032 136.776904,52.9095075 138.921997,51.121238 C141.068128,49.3301638 143.574718,46.8256516 143.574718,46.8256516 C143.574718,46.8256516 144.824377,47.9030801 144.11177,49.871475 C144.11177,49.871475 138.385983,52.9095075 136.776904,53.9807032 C135.165748,55.0577162 132.124184,56.6689765 132.124184,56.6689765" id="path36" fill="#1F3361"></path>
                        <path d="M141.428586,57.2038473 C141.428586,57.2038473 141.249915,59.70784 140.533153,60.601819 C139.81743,61.4969405 138.921997,62.5697983 138.921997,62.5697983 L143.575756,60.2438534 L139.81743,66.505861 C139.81743,66.505861 135.52309,68.6524076 134.450025,68.2956886 C133.37592,67.938658 136.776904,64.3584833 136.776904,64.3584833 C136.776904,64.3584833 132.123145,66.8633071 130.336433,67.2203377 C128.546606,67.5766412 129.622788,64.8949122 130.515105,64.1811626 C131.409499,63.467413 134.450025,62.5697983 136.239852,61.4969405 C138.02968,60.4215896 141.428586,57.2038473 141.428586,57.2038473" id="path38" fill="#1F3361"></path>
                        <path d="M32.7100092,40.1656853 C32.7100092,40.1656853 32.7481326,39.8548806 32.1280815,39.3135695 C30.9449046,38.2845484 28.1275102,35.5500491 24.7900998,35.5865105 C21.4513388,35.627127 20.9851319,35.627127 21.0641834,36.4788273 C21.1409497,37.3349945 22.4609346,37.1418842 23.0459787,37.1000211 C23.6266598,37.060755 25.4632328,36.7839187 26.6152461,37.1000211 C29.0231512,37.763909 31.1181741,39.7011404 31.5056411,39.9360098 C31.8931082,40.1656853 32.0875688,40.4760745 32.7100092,40.1656853" id="path40" fill="#FFFFFF"></path>
                    </g>
                </g>
            </g>
        </g>
    </g>
</svg>